<mxfile host="app.diagrams.net" modified="2023-11-30T02:56:34.607Z" agent="Mozilla/5.0 (Windows NT 10.0; Win64; x64) AppleWebKit/537.36 (KHTML, like Gecko) Chrome/119.0.0.0 Safari/537.36 Edg/119.0.0.0" etag="atodX8ZRObd4n4lr9T9y" version="22.1.5" type="github">
  <diagram name="第 1 页" id="s09egjpV_Wm-HMIrFeCx">
    <mxGraphModel dx="1213" dy="631" grid="1" gridSize="10" guides="1" tooltips="1" connect="1" arrows="1" fold="1" page="1" pageScale="1" pageWidth="827" pageHeight="1169" math="0" shadow="0">
      <root>
        <mxCell id="0" />
        <mxCell id="1" parent="0" />
        <mxCell id="e8QbOhT7RonYehfSZJ-p-5" style="edgeStyle=orthogonalEdgeStyle;rounded=0;orthogonalLoop=1;jettySize=auto;html=1;exitX=1;exitY=0.5;exitDx=0;exitDy=0;entryX=0;entryY=0.5;entryDx=0;entryDy=0;fontFamily=Helvetica;fontSize=12;fontColor=default;comic=1;" edge="1" parent="1" source="e8QbOhT7RonYehfSZJ-p-1" target="e8QbOhT7RonYehfSZJ-p-2">
          <mxGeometry relative="1" as="geometry" />
        </mxCell>
        <mxCell id="e8QbOhT7RonYehfSZJ-p-1" value="" style="ellipse;whiteSpace=wrap;html=1;aspect=fixed;comic=1;" vertex="1" parent="1">
          <mxGeometry x="10" y="250" width="80" height="80" as="geometry" />
        </mxCell>
        <mxCell id="e8QbOhT7RonYehfSZJ-p-6" style="edgeStyle=orthogonalEdgeStyle;shape=connector;rounded=0;comic=1;orthogonalLoop=1;jettySize=auto;html=1;exitX=1;exitY=0.5;exitDx=0;exitDy=0;labelBackgroundColor=default;strokeColor=default;align=center;verticalAlign=middle;fontFamily=Helvetica;fontSize=12;fontColor=default;endArrow=classic;" edge="1" parent="1" source="e8QbOhT7RonYehfSZJ-p-2" target="e8QbOhT7RonYehfSZJ-p-4">
          <mxGeometry relative="1" as="geometry" />
        </mxCell>
        <mxCell id="e8QbOhT7RonYehfSZJ-p-7" style="edgeStyle=orthogonalEdgeStyle;shape=connector;rounded=0;comic=1;orthogonalLoop=1;jettySize=auto;html=1;exitX=0.5;exitY=1;exitDx=0;exitDy=0;entryX=0.5;entryY=0;entryDx=0;entryDy=0;labelBackgroundColor=default;strokeColor=default;align=center;verticalAlign=middle;fontFamily=Helvetica;fontSize=12;fontColor=default;endArrow=classic;curved=1;" edge="1" parent="1" source="e8QbOhT7RonYehfSZJ-p-2" target="e8QbOhT7RonYehfSZJ-p-3">
          <mxGeometry relative="1" as="geometry" />
        </mxCell>
        <mxCell id="e8QbOhT7RonYehfSZJ-p-2" value="" style="rounded=0;whiteSpace=wrap;html=1;comic=1;" vertex="1" parent="1">
          <mxGeometry x="230" y="200" width="120" height="60" as="geometry" />
        </mxCell>
        <mxCell id="e8QbOhT7RonYehfSZJ-p-3" value="" style="rounded=1;whiteSpace=wrap;html=1;strokeWidth=2;fillWeight=4;hachureGap=8;hachureAngle=45;fillColor=#fff2cc;sketch=1;strokeColor=#d6b656;" vertex="1" parent="1">
          <mxGeometry x="190" y="350" width="120" height="60" as="geometry" />
        </mxCell>
        <mxCell id="e8QbOhT7RonYehfSZJ-p-4" value="" style="shape=ext;double=1;rounded=0;whiteSpace=wrap;html=1;comic=1;strokeColor=default;align=center;verticalAlign=middle;fontFamily=Helvetica;fontSize=12;fontColor=default;fillColor=default;" vertex="1" parent="1">
          <mxGeometry x="420" y="190" width="120" height="80" as="geometry" />
        </mxCell>
      </root>
    </mxGraphModel>
  </diagram>
</mxfile>
